<?xml version="1.0" encoding="UTF-8" standalone="no"?>
<!-- Created with Inkscape (http://www.inkscape.org/) -->

<svg
   xmlns:dc="http://purl.org/dc/elements/1.1/"
   xmlns:cc="http://creativecommons.org/ns#"
   xmlns:rdf="http://www.w3.org/1999/02/22-rdf-syntax-ns#"
   xmlns:svg="http://www.w3.org/2000/svg"
   xmlns="http://www.w3.org/2000/svg"
   xmlns:sodipodi="http://sodipodi.sourceforge.net/DTD/sodipodi-0.dtd"
   xmlns:inkscape="http://www.inkscape.org/namespaces/inkscape"
   width="185.95137mm"
   height="185.96259mm"
   viewBox="0 0 185.95137 185.96259"
   version="1.1"
   id="svg8"
   sodipodi:docname="ewma.svg"
   inkscape:version="0.92.2 5c3e80d, 2017-08-06">
  <defs
     id="defs2" />
  <sodipodi:namedview
     id="base"
     pagecolor="#ffffff"
     bordercolor="#666666"
     borderopacity="1.0"
     inkscape:pageopacity="0.0"
     inkscape:pageshadow="2"
     inkscape:zoom="0.35"
     inkscape:cx="897.32283"
     inkscape:cy="277.4653"
     inkscape:document-units="mm"
     inkscape:current-layer="layer1"
     showgrid="false"
     inkscape:window-width="1920"
     inkscape:window-height="980"
     inkscape:window-x="0"
     inkscape:window-y="27"
     inkscape:window-maximized="1"
     fit-margin-top="0"
     fit-margin-left="0"
     fit-margin-right="0"
     fit-margin-bottom="0" />
  <metadata
     id="metadata5">
    <rdf:RDF>
      <cc:Work
         rdf:about="">
        <dc:format>image/svg+xml</dc:format>
        <dc:type
           rdf:resource="http://purl.org/dc/dcmitype/StillImage" />
        <dc:title></dc:title>
      </cc:Work>
    </rdf:RDF>
  </metadata>
  <g
     inkscape:label="Layer 1"
     inkscape:groupmode="layer"
     id="layer1"
     transform="translate(-13.792319,-56.977652)">
    <path
       style="fill:#07b1fa;stroke-width:0.35277778"
       d="m 99.888852,242.87448 c -13.43205,-1.36714 -23.35884,-4.11778 -34.21945,-9.48196 -9.76983,-4.82542 -17.280743,-10.17852 -24.721413,-17.61919 -7.44068,-7.44067 -12.79378,-14.95158 -17.6192,-24.7214 -4.52343,-9.15839 -7.42588,-18.52358 -8.85595,-28.575 -0.90736,-6.37754 -0.90736,-18.66968 0,-25.04722 1.43007,-10.05142 4.33252,-19.41661 8.85595,-28.575 4.82542,-9.76981 10.17852,-17.280718 17.6192,-24.721388 7.44067,-7.44067 14.951583,-12.79377 24.721413,-17.61919 9.15839,-4.52343 18.52359,-7.425891 28.575,-8.855951 6.377548,-0.907372 18.669678,-0.907372 25.047228,0 10.05141,1.43006 19.4166,4.332521 28.57499,8.855951 9.76982,4.82542 17.28073,10.17852 24.7214,17.61919 7.44067,7.44067 12.79377,14.951578 17.61919,24.721388 4.52343,9.15839 7.42589,18.52358 8.85595,28.575 0.90737,6.37754 0.90737,18.66968 0,25.04722 -0.7983,5.61099 -2.51742,12.70375 -4.44626,18.34444 -1.81712,5.31397 -6.61577,15.07429 -9.79952,19.93195 -12.93477,19.73541 -32.64024,33.74272 -55.64798,39.55642 -6.86488,1.73466 -12.55339,2.4472 -20.6375,2.58505 -3.97756,0.0678 -7.86694,0.0587 -8.643048,-0.0203 z m 17.356228,-16.55091 c 9.82708,-1.26357 19.16977,-4.46885 28.36246,-9.73054 11.15555,-6.3852 21.41498,-16.64463 27.80018,-27.80018 7.13628,-12.46777 10.26584,-24.25431 10.26584,-38.66314 0,-14.40883 -3.12956,-26.19537 -10.26584,-38.66314 -6.3852,-11.15554 -16.64463,-21.414968 -27.80018,-27.800168 -12.46776,-7.13628 -24.25431,-10.26585 -38.66314,-10.26585 -14.408828,0 -26.195378,3.12957 -38.663138,10.26585 -20.228443,11.57832 -34.554613,33.016638 -37.530733,56.162628 -0.68868,5.35601 -0.68868,15.24535 0,20.60136 1.63495,12.71544 6.81148,25.34088 14.75862,35.99597 11.879083,15.9268 31.082273,27.24377 50.675533,29.86449 5.093238,0.68125 15.886208,0.69802 21.060398,0.0327 z m -16.77341,-40.85144 c -1.140978,-1.37479 -9.623448,-32.67336 -11.858918,-43.75696 -0.85516,-4.23995 -1.64444,-7.79859 -1.75395,-7.90811 -0.10951,-0.10951 -0.29734,-0.10088 -0.4174,0.0192 -0.37396,0.37396 -4.28508,16.31293 -5.77515,23.53542 -1.77095,8.58403 -2.71916,14.93503 -3.21285,21.51944 -0.21094,2.8134 -0.45636,5.49241 -0.54536,5.95335 l -0.16184,0.83807 -6.77312,-0.24348 c -9.5002,-0.34151 -17.855603,-0.84329 -18.266063,-1.09697 -0.59149,-0.36556 -4.60396,-8.65838 -4.48592,-9.27131 0.12106,-0.62859 1.26703,-0.65118 9.717053,-0.19151 4.723,0.25692 4.62104,0.41218 2.70071,-4.11275 -0.69741,-1.64333 -2.19118,-5.76601 -3.31949,-9.16149 l -2.05147,-6.17361 -6.718053,-0.17639 c -3.77262,-0.0991 -6.8652,-0.33106 -7.05369,-0.52917 -0.43671,-0.45899 -1.4615,-6.52671 -1.4615,-8.65346 v -1.64995 l 2.69906,-0.22816 c 1.48449,-0.12548 4.25324,-0.22815 6.15279,-0.22815 1.89956,0 3.53782,-0.13605 3.64058,-0.30233 0.10277,-0.16627 -0.0314,-2.11096 -0.29813,-4.32152 -0.26673,-2.21057 -0.59675,-6.21916 -0.73337,-8.90799 l -0.2484,-4.88879 -5.2093,0.25228 c -3.39441,0.16439 -5.2859,0.12835 -5.42917,-0.10346 -0.26485,-0.42854 1.73228,-8.51731 2.22447,-9.00949 0.41684,-0.41684 8.52123,-1.19587 14.098643,-1.35521 l 4.02078,-0.11488 0.0885,7.40833 c 0.12579,10.52891 1.37672,18.91273 4.92158,32.98472 1.96593,7.80413 2.76392,10.40695 3.19062,10.40695 0.18607,0 0.61965,-2.2225 0.96352,-4.93889 1.53639,-12.13659 5.30268,-26.1206 11.18461,-41.52774 1.16686,-3.05648 2.06088,-4.90131 2.42708,-5.00841 1.16743,-0.3414 11.3281,-0.35919 11.64827,-0.0204 0.17809,0.18846 0.82847,2.88266 1.44529,5.9871 1.10099,5.54129 2.7684,12.78513 6.333898,27.51667 0.98618,4.07458 2.23434,9.3927 2.77371,11.81805 0.69002,3.10285 1.12848,4.40972 1.47945,4.40972 0.59397,0 3.12974,-7.85097 7.80509,-24.16527 3.09666,-10.80556 6.30255,-23.20678 6.30895,-24.40467 0.008,-1.4911 0.83144,-1.70089 6.67646,-1.70089 4.8577,0 5.6335,0.0784 6.10717,0.61736 1.01792,1.15816 5.94457,14.76591 8.36078,23.09302 2.39485,8.25353 4.49797,18.26181 5.17363,24.62018 0.13401,1.26118 0.35618,2.60467 0.49371,2.98554 0.24765,0.68577 0.2537,0.68568 0.62594,-0.01 0.47093,-0.87995 2.5994,-9.48522 3.79005,-15.32291 2.09032,-10.24879 3.01537,-22.22662 2.32693,-30.12998 -0.21815,-2.50448 -0.30458,-4.64566 -0.19207,-4.75817 0.31444,-0.31445 6.94064,-0.017 7.61077,0.34162 0.32557,0.17423 1.46409,2.02567 2.53007,4.1143 9.87801,19.35478 13.35422,39.74414 9.75951,57.24334 -0.78923,3.84202 -1.27132,5.61416 -1.71547,6.30604 -0.19549,0.30455 -1.24587,0.55207 -2.82095,0.66477 -2.89085,0.20684 -2.74986,0.45966 -1.98185,-3.5539 0.96757,-5.05644 1.30585,-12.13861 0.87605,-18.3408 -0.21729,-3.13569 -0.56208,-5.90246 -0.76619,-6.1484 -0.51992,-0.62647 -6.75814,-0.6194 -7.27904,0.008 -0.20788,0.25047 -0.53681,1.16329 -0.73096,2.02848 -1.20844,5.38505 -4.62982,15.31159 -7.68537,22.29776 -1.53264,3.50421 -2.19117,4.63642 -2.84026,4.8832 -0.46476,0.17668 -2.887,0.32126 -5.38277,0.32126 h -4.53776 l -0.18074,-1.85209 c -0.0994,-1.01864 -0.36247,-4.06105 -0.58458,-6.76092 -0.71778,-8.72496 -2.26711,-17.3298 -5.84685,-32.47286 -1.75785,-7.4361 -2.29157,-9.09265 -2.77406,-8.61016 -0.0962,0.0962 -1.59845,5.16566 -3.33824,11.26537 -3.13337,10.98558 -11.61342,36.81358 -12.5889,38.34246 -0.49333,0.7732 -0.66494,0.79375 -6.62873,0.79375 -4.63299,0 -6.21606,-0.113 -6.5078,-0.46452 z"
       id="path3807"
       inkscape:connector-curvature="0" />
    <path
       style="fill:#ffffff;stroke:#ffffff;stroke-width:0.26726952"
       d="M 98.046063,226.36747 C 88.461066,225.5207 76.761948,221.52009 67.479888,215.91511 54.6732,208.18178 44.859366,197.58003 38.328298,184.42306 c -3.585363,-7.22279 -5.802537,-13.96997 -7.153394,-21.76882 -0.541954,-3.12885 -0.602451,-4.36524 -0.60811,-12.42804 -0.0067,-9.59797 0.153913,-11.34149 1.623221,-17.6165 3.96571,-16.93643 14.302285,-32.982438 27.903776,-43.316478 8.934457,-6.788155 19.358519,-11.702039 29.70727,-14.003951 11.383929,-2.532171 25.606319,-2.295668 36.888899,0.613426 8.26279,2.13047 18.52851,7.03521 25.47126,12.169613 6.98597,5.166371 13.95279,12.4151 18.50821,19.25714 9.20913,13.8317 13.38968,28.70913 12.805,45.56945 -0.41925,12.08963 -2.69493,21.1574 -7.92552,31.58038 -9.35031,18.63232 -25.46703,32.40707 -45.4305,38.82885 -4.64763,1.49504 -10.4553,2.6993 -14.83346,3.07582 -3.71562,0.31955 -13.54158,0.31015 -17.238887,-0.0165 z m 14.824017,-40.59083 c 0.93881,-0.35693 1.19162,-0.99299 5.36599,-13.5007 3.96085,-11.86792 6.10947,-18.71271 8.93507,-28.4642 1.04357,-3.60146 2.02938,-6.95934 2.19071,-7.46196 l 0.29332,-0.91385 0.35157,0.67099 c 0.6685,1.27588 4.32924,16.82144 5.84238,24.81007 1.0251,5.41204 1.9315,12.29218 2.45593,18.64204 l 0.46906,5.67948 4.69249,-0.004 c 3.20067,-0.003 4.90492,-0.10973 5.36067,-0.33669 0.8611,-0.42882 2.30932,-3.18543 4.45469,-8.47926 1.74645,-4.30947 5.01437,-14.03369 5.98951,-17.82275 0.83844,-3.25785 0.69568,-3.15791 4.5111,-3.15791 2.4566,0 3.29326,0.0886 3.46523,0.36681 0.61786,0.99971 1.08867,10.17321 0.80701,15.72402 -0.11782,2.3219 -0.42542,5.54464 -0.68357,7.16162 -0.25814,1.61698 -0.47698,3.42105 -0.48631,4.00904 -0.0149,0.93658 0.0641,1.08052 0.63708,1.16139 1.06535,0.15036 3.93521,-0.23634 4.42796,-0.59664 0.58831,-0.43018 1.82149,-5.2861 2.58688,-10.18645 0.77224,-4.94412 0.82801,-14.99974 0.11266,-20.31249 -1.43684,-10.67115 -4.89904,-21.88018 -9.79199,-31.70203 -2.72939,-5.47884 -2.96431,-5.78248 -4.62932,-5.98349 -0.75807,-0.0915 -2.5209,-0.12884 -3.91738,-0.0829 l -2.53906,0.0835 0.13363,2.80633 c 0.45577,9.57104 -0.0567,19.13215 -1.47984,27.61095 -0.95114,5.66666 -3.20006,15.57213 -4.31757,19.01694 -0.54844,1.69061 -0.66823,1.38968 -1.27258,-3.19659 -0.6255,-4.74675 -2.32091,-13.22868 -3.73963,-18.70887 -2.65823,-10.26813 -8.33365,-26.49915 -9.81275,-28.06329 -0.46445,-0.49115 -0.91169,-0.5412 -5.51001,-0.61663 -6.31581,-0.10359 -7.02601,0.0722 -7.34903,1.81935 -1.3254,7.16855 -10.42012,39.38736 -13.07166,46.30748 -0.43716,1.14091 -0.90256,2.0078 -1.03424,1.92642 -0.31232,-0.19302 -0.44564,-0.70409 -3.10044,-11.88525 -4.881861,-20.56084 -5.529503,-23.34876 -6.922754,-29.80055 -1.774423,-8.21692 -1.652656,-7.80281 -2.349391,-7.98973 -0.808247,-0.21682 -9.171263,-0.17116 -10.457651,0.0571 -0.954262,0.16933 -1.135314,0.33598 -1.798085,1.65504 -0.91822,1.82745 -2.708031,6.61873 -4.937754,13.21825 -3.850865,11.39777 -6.136214,20.72506 -7.693472,31.39969 -0.374253,2.56541 -0.791906,4.77583 -0.928116,4.91204 -0.745244,0.74525 -6.016231,-21.48463 -7.087042,-29.88891 -0.565632,-4.43935 -0.947513,-10.93861 -0.948637,-16.14482 l -0.0011,-4.38495 -5.011303,0.17055 c -4.668501,0.15888 -11.850775,0.78415 -12.925507,1.12525 -0.264895,0.0841 -0.649875,0.69798 -0.881848,1.40624 -0.608312,1.85729 -1.76035,6.77185 -1.760749,7.51131 l -2.65e-4,0.64163 5.302589,-0.14759 5.302588,-0.14759 0.318551,5.11862 c 0.175204,2.81524 0.496062,6.79475 0.713017,8.84336 0.275998,2.60612 0.309118,3.77748 0.110284,3.90037 -0.156297,0.0966 -2.60083,0.25322 -5.43229,0.34805 -2.831462,0.0948 -5.530876,0.24896 -5.998694,0.34253 -0.844989,0.16899 -0.850575,0.18088 -0.849508,1.80714 0.0011,1.64443 0.595169,5.87153 1.080764,7.68993 0.143172,0.53612 0.458439,1.0508 0.70059,1.14372 0.347525,0.13336 10.275446,0.66274 12.813808,0.68326 0.493607,0.004 0.792017,0.66818 2.373633,5.28314 0.994973,2.90321 2.454777,6.94411 3.244006,8.97977 0.789225,2.03565 1.434957,3.99454 1.434957,4.35308 v 0.65188 l -6.614922,-0.0768 -6.614922,-0.0768 -0.08734,0.61611 c -0.134083,0.94584 3.816125,8.8299 4.565751,9.11259 0.770006,0.29039 19.413714,1.33936 24.161165,1.35942 0.993507,0.004 0.929176,0.30455 1.5735,-7.34635 0.483484,-5.74096 1.161876,-10.56992 2.41662,-17.20207 1.529038,-8.08195 5.968717,-26.58137 6.508914,-27.12157 0.292991,-0.29299 0.301704,-0.26102 1.626939,5.97046 1.550201,7.28929 3.322685,14.54567 6.013965,24.6206 2.347111,8.78652 5.518523,19.63669 6.005719,20.54702 0.14716,0.27497 0.59835,0.55005 1.00266,0.6113 1.56233,0.23666 11.02512,0.17815 11.6837,-0.0722 z"
       id="path3809"
       inkscape:connector-curvature="0" />
  </g>
</svg>
